<svg id="a3950e71-35b1-4cf3-9067-a05e75e8d2f0" data-name="Layer 1" xmlns="http://www.w3.org/2000/svg" viewBox="0 0 205.58 127.89"><path d="M16.55,12.11C18,8.93,19.32,5.9,20.76,3c.51-1,1.31-.64,2,0a41,41,0,0,0,4.81,4.35,17.54,17.54,0,0,0,5.9,2.82c24.72,5.26,49.76,6,74.9,5.08,19-.7,38-1.68,57-2.41,8.68-.34,17.33.18,25.7,2.71a47.93,47.93,0,0,1,7.16,3.26c.5.24,1.24.93,1.16,1.25-.53,2.28-1.21,4.53-2,6.75a1.76,1.76,0,0,1-1.47,0C192,23,187,22.43,182.1,22.44c-10.74,0-21.5.25-32.22,1-27.2,1.87-54.37,4.13-81.67,3.38-11.16-.31-22.29-1.25-33.14-4.12C29,21.07,23.12,18.77,18.36,14.38A20.45,20.45,0,0,1,16.55,12.11Z"/><path d="M162.67,111.93c-1,2.4-1.94,4.71-3,7-.07.17-1.56.06-1.7-.25-2-4.15-5.68-4.37-9.36-4-10.7,1-21.4,2-32,3.37-14,1.83-27.9,4.6-41.94,5.9C59.05,125.3,43.39,125.46,28.1,121c-7.18-2.1-13.58-5.26-18-11.58-2.42-3.43-2.58-3.45.53-6.16C15,99.39,13.71,99.42,18,103s9.2,4.08,14.15,4.93a188.24,188.24,0,0,0,48.52,2c10.43-.91,20.8-2.49,31.2-3.79,11.88-1.48,23.75-3.24,35.76-2.22,5.22.44,10.08,2,13.73,6.15A19.77,19.77,0,0,1,162.67,111.93Z"/><path d="M82.62,58.22c4.95,1.19,7.4,4.09,7.57,8.72s.08,9.06.22,13.59a29.35,29.35,0,0,0,.73,7,91.93,91.93,0,0,0,3.66,9.06,2.9,2.9,0,0,1-1.12.39c-3.85.16-7.71.29-11.56.32a5.74,5.74,0,0,1-1.94-.74c.28-.58.59-1.15.83-1.75.57-1.4,1.5-2.8,1.61-4.25a40,40,0,0,0-2.15-16.37c-1.76-5.1-3.83-6.35-9.66-5.88,1.25,9.92,1.55,20,7.6,29a10,10,0,0,1-1.77.49c-5.87.43-11.74.81-17.61,1.23-1.46.1-2.09-.41-1.54-1.89,2.39-6.48,2.45-13.24,2.51-20q.16-15.95.47-31.87a11,11,0,0,0-1.33-5.81c-1-1.7-1.75-3.5-2.56-5.28-.9-2-.47-2.59,1.74-2.4,5,.42,10.11.87,15.16,1.3,2.49.21,5,.36,7.48.62,7.6.77,11.6,6.52,9.16,13.76-.94,2.78-3,5.2-4.66,7.71A25.44,25.44,0,0,1,82.62,58.22ZM70.74,50.87c2.13-.8,4-1.48,4.67-3.57A2.63,2.63,0,0,0,74.94,45,6.53,6.53,0,0,0,71.78,44c-.2,0-.68,1.3-.77,2C70.83,47.52,70.83,49,70.74,50.87Z"/><path d="M122.37,58c5.87,2,7.65,4.46,7.8,10.43.13,5.67.1,11.36.49,17,.24,3.56,1.11,7.06,3.87,9.76,1,1,.57,1.76-.83,1.77-4.45,0-8.91,0-13.7,0,.27-.68.56-1.35.81-2,.63-1.74,1.67-3.46,1.77-5.24a39.18,39.18,0,0,0-2.7-16.68c-1.63-4.13-4.47-5.5-9.35-4.52.73,5,1.35,9.94,2.21,14.9a37.19,37.19,0,0,0,5.66,14.28c-3.05.16-5.52.25-8,.42-3.7.26-7.41.56-11.11.86-1.92.16-2.45-.3-1.84-2.19C99.63,90,100,83,100,76c.07-10.82.21-21.64.26-32.46a6.87,6.87,0,0,0-.66-2.69c-1-2.35-2.26-4.61-3.29-7-.71-1.64-.29-2.24,1.36-2.11,8,.63,16,1.18,24,2,6.43.68,10,6.09,8.67,12.39a18.18,18.18,0,0,1-5.57,9.68C124.07,56.54,123.31,57.2,122.37,58Zm-11.58-7.35c1.89-.71,3.82-1.21,4.42-3.26a2.78,2.78,0,0,0-.48-2.46,7.46,7.46,0,0,0-3.33-.89,5.36,5.36,0,0,0-.58,2.06C110.73,47.6,110.79,49.07,110.79,50.69Z"/><path d="M159.9,68.39c-.32,7.69.16,15.13,3.65,22a36.19,36.19,0,0,0,2.84,4.18c1.15,1.65.93,2.45-1,2.51-7.43.22-14.87.3-22.31.37-.43,0-1.15-.36-1.24-.69a1.76,1.76,0,0,1,.55-1.39A23.51,23.51,0,0,1,145,93.2a11.07,11.07,0,0,0,4.63-8.64c.21-3.64.2-7.3.32-11,0-1.06-.27-1.54-1.42-1.7C141.89,71,138,67.26,137.18,60.48c-.65-5.36-.63-10.81-1.31-16.16a24.64,24.64,0,0,0-2.5-7.13c-.83-1.74-.92-2.38.93-2.74,3.38-.64,6.8-1.05,10.21-1.53,1.35-.19,2,.47,2.08,1.82.09,3,.16,5.95.29,8.92a15.63,15.63,0,0,0,4.38,10.82c2.44,2.44,4.72,2.1,5.66-1.19A88.16,88.16,0,0,0,159,41.57c.3-2.06.32-4.17.48-6.26A2.76,2.76,0,0,1,162,32.56a32.71,32.71,0,0,1,12.89-.11c1.59.35,2.17,1.09,1.54,2.52-3.31,7.52-4.28,15.59-5.77,23.55C169.53,64.46,166.16,67.45,159.9,68.39Z"/><path d="M6,62.52c.37,1,.81,1.9,1.1,2.88C8.11,68.7,9,72,10,75.32a10.42,10.42,0,0,0,4.69,6.14c1.32.76,2.93,1.6,4.09.3a6.21,6.21,0,0,0,1.57-4.08,10.08,10.08,0,0,0-1.88-4.6c-2.67-4.06-5.76-7.86-8.26-12C6.37,54.65,5.84,47.61,7.77,40.49a16.83,16.83,0,0,1,3.34-6.14c2.81-3.38,6.18-4,10.25-2.31.63.25,1.24.54,1.86.81,2.72,1.18,5.4,2.72,8.69.89-.6,7.11-1.17,13.84-1.74,20.57l-.34.13c-.24-.63-.51-1.24-.71-1.88a35.61,35.61,0,0,0-1.75-5.38,8.44,8.44,0,0,0-3-3.37c-3.59-2.09-7-.11-7.38,4a11.07,11.07,0,0,0,2.66,7.87c2.32,3,4.77,5.89,6.94,9,6.11,8.71,5.92,18.07,2.45,27.65a11.67,11.67,0,0,1-1.86,3.12c-4,5.18-10.57,6-15.52,1.66a18.85,18.85,0,0,1-4.39-5.72c-3.38-7-5.13-14.2-3.16-22,.57-2.25.85-4.57,1.26-6.86Z"/><path d="M56.72,69.37c-.27,5.06-.27,10.15-.87,15.16-.73,6.19-4.7,10.21-10.1,12.79-3.47,1.66-6.63.52-8-3.1a45.67,45.67,0,0,1-2.29-10c-1.09-8.65-2.25-17.36-1.06-26.07.9-6.54,2.21-13,3.59-19.49.71-3.29,5.26-5.36,8.44-4.22s5,3.57,6.26,6.53c2.18,5.12,2.67,10.59,3.1,16,.32,4.11.45,8.23.66,12.35Zm-13-26.95c-1.83,4-2.48,9.63-1.36,11.32C45.23,50.93,46,45.22,43.72,42.42Z"/><path d="M184,95.18c-2.09-.2-4.18-.3-6.25-.62-2.77-.43-3.21-1.1-2.62-3.84,1.86-8.72,3.72-17.44,5.67-26.14s4-17.51,6-26.28c.28-1.24.28-2.55.45-3.82s.92-2.17,2.3-2c3.62.43,7.25.85,10.83,1.49,1.63.29,1.94,1.53,1.2,3.36-2.07,5.13-4.41,10.18-6.17,15.41-3.58,10.63-5.78,21.54-5.46,32.84a46.05,46.05,0,0,0,.72,6.62c.31,1.76-.3,2.63-2,2.71s-3.11,0-4.67,0Z"/><path d="M189.15,105.72a7.87,7.87,0,0,1-8.1,7.61c-4.44,0-7.52-3.46-7.45-8.35.06-3.86,4.27-7.54,8.61-7.52C186,97.48,189.18,101.25,189.15,105.72Z"/></svg>