<svg id="fa151bb7-38f6-4844-9de5-b1b2ba26b38b" data-name="Layer 1" xmlns="http://www.w3.org/2000/svg" viewBox="0 0 25 25"><path d="M7.27,1a2,2,0,0,1,1.1.56A1.92,1.92,0,0,1,8.9,2.8a13.83,13.83,0,0,0,.35,3c.1.42.23.83.33,1.24A1.84,1.84,0,0,1,9.2,8.72c-.65.83-1.29,1.68-1.92,2.53a.24.24,0,0,0,0,.22A14,14,0,0,0,12,16.8c.49.32,1,.61,1.5.92a.22.22,0,0,0,.29,0l2.59-2a1.79,1.79,0,0,1,1.53-.31c.67.15,1.32.36,2,.48a12,12,0,0,0,2,.19A2,2,0,0,1,24,17.73v4.69s0,0,0,.06A1.86,1.86,0,0,1,22.08,24a22.22,22.22,0,0,1-4.45-.49,21.09,21.09,0,0,1-7.33-3.16,21.14,21.14,0,0,1-6.62-7.2A20.94,20.94,0,0,1,1,2.85a1.9,1.9,0,0,1,.43-1.22A2,2,0,0,1,2.58,1Z"/></svg>