<?xml version="1.0" encoding="utf-8"?>
<!-- Generator: Adobe Illustrator 26.0.2, SVG Export Plug-In . SVG Version: 6.00 Build 0)  -->
<svg version="1.1" id="af1c292b-c239-4626-85b1-9dd03dbbf065"
	 xmlns="http://www.w3.org/2000/svg" xmlns:xlink="http://www.w3.org/1999/xlink" x="0px" y="0px" viewBox="0 0 429.6 97"
	 style="enable-background:new 0 0 429.6 97;" xml:space="preserve">
<style type="text/css">
	.st0{enable-background:new    ;}
	.st1{fill:#231F20;}
</style>
<g>
	<path d="M48.4,15.5c1.3-1.5,2.3-2.6,3.4-3.6C55.4,8.2,59.1,4.6,62.7,1c0.6-0.7,1.5-1,2.4-1c5.8,0,11.7,0,17.5,0h1.5
		c0,0.5,0.1,0.9,0.1,1.4c0,8.1,0.1,16.2,0,24.3c-0.1,7-5.8,12.6-12.7,12.5c-0.3,0-0.6,0-1,0c-7-0.5-12.3-7-11.7-14.1
		c0.4-5.4,4.2-10,9.4-11.5c2.5-0.5,5-0.6,7.5-0.4v4.7l-1.7,0.1c-1.4,0-2.8,0.1-4.2,0.2c-4.3,0.9-6.7,4.7-6.1,9.2
		c0.4,4.2,4.1,7.3,8.3,6.9c4-0.3,7.2-3.6,7.3-7.6c0.1-1.6,0-3.3,0-4.9V5c-0.6,0-1-0.1-1.4-0.1c-3.7,0-7.3,0-10.9,0
		c-0.9,0-1.7,0.3-2.2,1c-4.3,4.4-8.7,8.7-13,13c-0.6,0.5-0.9,1.3-0.8,2.1c0,4.1,0,8.2,0,12.3c0,0.8,0.3,1.6,0.9,2.1
		c3.3,3.3,6.7,6.6,10,10c0.5,0.5,1.1,0.8,1.8,0.8c4.2,0,8.4,0,12.6,0c0.9,0,1.7-0.3,2.2-1c4.3-4.3,8.7-8.7,13-13
		c0.4-0.4,0.7-0.9,0.8-1.5c0-4.1,0-8.2,0-12.3c0-0.2-0.1-0.4-0.2-0.6h-3.9v-4.8H97v1.6c0,5.8,0,11.6,0,17.4c0.1,0.9-0.3,1.9-1,2.5
		c-4.4,4.4-8.8,8.8-13.2,13.2c-0.3,0.3-0.5,0.6-0.9,1c0.4,0.4,0.7,0.8,1,1.1c4.4,4.4,8.8,8.8,13.1,13.1c0.7,0.6,1,1.5,1,2.3
		c0,5.8,0,11.7,0,17.5v1.5c-0.5,0-0.9,0.1-1.3,0.1c-8,0-16.1,0.1-24.1,0c-6.9,0.1-12.6-5.5-12.7-12.3c-0.3-5.1,2.7-9.9,7.4-11.9
		c6.5-3.1,14.3-0.4,17.4,6.1c0.4,0.8,0.7,1.6,0.9,2.4c0.5,2.4,0.6,4.9,0.2,7.3c-0.3,0-0.6,0.1-0.8,0.1h-3.7
		c-0.1-0.5-0.1-0.8-0.2-1.2c0-1.2,0-2.3,0-3.4c-0.2-4.3-3.8-7.7-8.1-7.6c-0.1,0-0.2,0-0.2,0c-0.4,0-0.8,0.1-1.2,0.2
		c-4.4,0.8-7.2,4.1-6.8,8.3c0.3,4.2,3.8,7.4,8,7.3c6.2,0,12.4,0,18.6,0H92c0.1-0.4,0.1-0.8,0.1-1.2c0-3.8,0-7.6,0-11.4
		c0-0.7-0.3-1.4-0.8-1.8c-4.4-4.4-8.8-8.8-13.2-13.2c-0.5-0.6-1.2-0.8-2-0.8c-4.1,0-8.3,0-12.4,0c-0.8,0-1.6,0.3-2.1,0.9
		c-3.3,3.3-6.6,6.7-10,10c-0.5,0.5-0.8,1.1-0.8,1.8c0,4,0,8.1,0,12.1c0,1,0.4,2,1.2,2.7c4.2,4.1,8.4,8.3,12.6,12.6
		c0.7,0.7,1.6,1.1,2.6,1.1c3.5-0.1,7,0,10.5,0c0.5,0,1,0,1.5-0.1c0.1-0.8,0.2-1.5,0.2-2.3h4.6v7.1C83.7,96.9,83.4,97,83,97
		c-6,0-12.1,0-18.1,0c-0.8,0-1.6-0.4-2.1-1c-4.4-4.4-8.7-8.8-13.1-13.2c-0.3-0.3-0.7-0.7-1.2-1.1l-3,3C41.7,88.6,38,92.3,34.3,96
		c-0.5,0.6-1.2,0.9-1.9,0.9c-6.1,0-12.3,0-18.4,0c-0.3,0-0.6,0-1-0.1c0-0.4-0.1-0.8-0.1-1.2c0-8.1-0.1-16.3,0-24.4
		c0.1-6.9,5.7-12.4,12.6-12.5c7.2,0.1,13,6.1,12.9,13.3c-0.1,5.7-3.8,10.6-9.2,12.3c-2.6,0.6-5.2,0.7-7.8,0.3v-4.6h4.2
		c2.4,0.1,4.8-1.1,6.2-3c2.1-2.6,2.1-5.4,1.1-8.4c-0.9-2.8-3.3-4.7-6.2-5c-4.3-0.6-8.3,2.5-8.8,6.8c0,0.2,0,0.4-0.1,0.7
		c-0.1,1.7,0,3.4,0,5.1v15.7c0.4,0.1,0.8,0.1,1.2,0.2c3.8,0,7.6,0,11.4,0c0.7,0,1.4-0.2,1.8-0.8c4.4-4.4,8.8-8.8,13.3-13.2
		c0.5-0.5,0.8-1.1,0.8-1.8c0-4.2,0-8.4,0-12.6c0-0.8-0.3-1.6-0.9-2.1c-3.3-3.3-6.6-6.5-9.9-9.8c-0.5-0.6-1.3-0.9-2.1-0.9
		c-4.1,0-8.3,0-12.4,0c-0.8,0-1.5,0.3-2,0.8c-4.5,4.5-8.9,8.9-13.3,13.4c-0.4,0.4-0.6,0.9-0.7,1.4c0,4.2,0,8.3,0,12.4
		C4.9,79,5,79.2,5,79.3h3.8v4.8c-2.8,0-5.7,0-8.7,0c0-0.5-0.1-0.9-0.1-1.4c0-6,0-12,0-18c0-0.8,0.3-1.6,0.9-2.1
		c4.5-4.4,8.9-8.9,13.3-13.3c0.3-0.3,0.5-0.6,0.9-1c-1-1-1.9-2-2.9-3C8.5,41.7,4.8,38,1,34.3c-0.7-0.6-1-1.5-1-2.4
		c0-5.8,0-11.7,0-17.5c0-0.5,0.1-1,0.1-1.6c0.6,0,1.1-0.1,1.6-0.1c7.7,0,15.5,0,23.2,0c3.6-0.1,7.1,1.2,9.6,3.8
		c3.6,3.6,4.7,9,2.8,13.7c-1.9,4.8-6.5,7.9-11.7,8c-5.9,0.3-11.2-3.4-13-9.1c-0.6-2.6-0.7-5.3-0.3-8h4.6c0,0.6,0.1,1.1,0.1,1.7
		c0,0.9,0,1.8,0,2.7c0,3.7,2.5,6.9,6.1,7.7c3.8,0.9,7.7-0.8,9.5-4.2c1.9-3.9,0.2-8.6-3.8-10.5c-0.8-0.4-1.6-0.6-2.5-0.7
		c-0.5-0.1-0.9-0.1-1.4-0.1H6.5c-0.5,0-1,0-1.5,0.1c0,0.5-0.1,0.9-0.1,1.3c0,3.7,0,7.4,0,11.1c0,0.8,0.3,1.6,0.9,2.1
		c4.3,4.3,8.6,8.6,12.9,12.9c0.6,0.6,1.5,1,2.3,0.9c4.1,0,8.2,0,12.3,0c0.8,0,1.6-0.3,2.1-0.9c3.3-3.3,6.5-6.6,9.8-9.9
		c0.6-0.5,0.9-1.3,0.9-2.1c0-4.1,0-8.2,0-12.3c0-0.8-0.3-1.6-0.8-2.1c-4.4-4.4-8.8-8.7-13.1-13.1c-0.4-0.5-1-0.8-1.7-0.8
		c-4,0-8.1,0-12.1,0c-0.2,0-0.4,0.1-0.6,0.1v3.9h-4.7V0.2c0.4,0,0.8-0.1,1.2-0.1c6,0,12.1,0,18.1,0c0.8,0,1.6,0.4,2.1,1
		c4.3,4.4,8.7,8.7,13,13C47.7,14.5,48.1,15,48.4,15.5z M48.6,39.3l-9.3,9.2l9.2,9.3l9.3-9.3L48.6,39.3z"/>
</g>
<g class="st0">
	<path class="st1" d="M132.8,73.5V63h-4v-0.7h8.9V63h-4v10.5H132.8z"/>
</g>
<g class="st0">
	<path class="st1" d="M139.5,73.5v-8.4h0.8v2.3l-0.1-0.3c0.2-0.7,0.6-1.2,1.2-1.6c0.6-0.4,1.2-0.5,2.1-0.5v0.8c0,0-0.1,0-0.1,0
		c0,0-0.1,0-0.1,0c-0.9,0-1.7,0.3-2.2,0.9c-0.5,0.6-0.8,1.4-0.8,2.4v4.4H139.5z"/>
</g>
<g class="st0">
	<path class="st1" d="M147.7,73.5c-0.6,0-1.2-0.1-1.6-0.3c-0.5-0.2-0.8-0.5-1-0.8c-0.2-0.4-0.4-0.8-0.4-1.2c0-0.4,0.1-0.8,0.3-1.2
		c0.2-0.3,0.5-0.6,1-0.8s1.1-0.3,1.8-0.3h3.1v0.6h-3.1c-0.9,0-1.5,0.2-1.8,0.5c-0.3,0.3-0.5,0.7-0.5,1.2c0,0.5,0.2,1,0.6,1.3
		c0.4,0.3,1,0.5,1.7,0.5c0.7,0,1.3-0.2,1.8-0.5c0.5-0.3,0.8-0.8,1.1-1.4l0.2,0.5c-0.2,0.6-0.6,1.1-1.1,1.4
		C149.2,73.3,148.6,73.5,147.7,73.5z M150.7,73.5v-1.9l0-0.3v-3.1c0-0.8-0.2-1.4-0.6-1.8c-0.4-0.4-1-0.6-1.8-0.6
		c-0.6,0-1.1,0.1-1.6,0.3s-0.9,0.5-1.3,0.8l-0.4-0.6c0.4-0.4,0.9-0.7,1.5-0.9c0.6-0.2,1.2-0.3,1.8-0.3c1,0,1.8,0.3,2.4,0.8
		s0.8,1.3,0.8,2.3v5.3H150.7z"/>
	<path class="st1" d="M159.2,65c0.7,0,1.3,0.1,1.8,0.4c0.5,0.3,0.9,0.7,1.2,1.2s0.4,1.2,0.4,2v4.9h-0.8v-4.8c0-0.9-0.2-1.7-0.7-2.1
		s-1.1-0.7-2-0.7c-0.7,0-1.2,0.1-1.7,0.4c-0.5,0.3-0.8,0.6-1.1,1.1c-0.3,0.5-0.4,1.1-0.4,1.7v4.4h-0.8v-8.4h0.8v2.3l-0.1-0.3
		c0.3-0.7,0.7-1.2,1.3-1.6C157.6,65.2,158.4,65,159.2,65z"/>
	<path class="st1" d="M168.3,73.5c-0.7,0-1.3-0.1-1.9-0.3c-0.6-0.2-1.1-0.5-1.4-0.8l0.4-0.6c0.3,0.3,0.7,0.5,1.3,0.7
		s1.1,0.3,1.7,0.3c0.9,0,1.5-0.1,1.9-0.4s0.6-0.7,0.6-1.1c0-0.3-0.1-0.6-0.3-0.8s-0.5-0.3-0.8-0.5c-0.3-0.1-0.7-0.2-1.1-0.3
		c-0.4-0.1-0.8-0.1-1.2-0.2c-0.4-0.1-0.8-0.2-1.1-0.4c-0.3-0.2-0.6-0.4-0.8-0.7c-0.2-0.3-0.3-0.7-0.3-1.1c0-0.4,0.1-0.8,0.4-1.2
		c0.2-0.3,0.6-0.6,1.1-0.8c0.5-0.2,1.1-0.3,1.8-0.3c0.5,0,1,0.1,1.6,0.2c0.5,0.1,1,0.3,1.3,0.6l-0.4,0.6c-0.4-0.3-0.7-0.5-1.2-0.6
		s-0.9-0.2-1.3-0.2c-0.8,0-1.4,0.1-1.8,0.4c-0.4,0.3-0.6,0.7-0.6,1.1c0,0.4,0.1,0.6,0.3,0.8s0.5,0.4,0.8,0.5
		c0.3,0.1,0.7,0.2,1.1,0.3s0.8,0.1,1.2,0.2c0.4,0.1,0.8,0.2,1.1,0.4c0.3,0.2,0.6,0.4,0.8,0.6c0.2,0.3,0.3,0.6,0.3,1.1
		c0,0.5-0.1,0.9-0.4,1.2c-0.3,0.3-0.6,0.6-1.1,0.8C169.6,73.4,169,73.5,168.3,73.5z"/>
</g>
<g class="st0">
	<path class="st1" d="M173,65.8v-0.7h5v0.7H173z M174.6,73.5v-9.6c0-0.7,0.2-1.3,0.6-1.7c0.4-0.4,1-0.6,1.7-0.6c0.3,0,0.6,0,0.9,0.1
		s0.5,0.2,0.7,0.4l-0.3,0.6c-0.2-0.2-0.4-0.3-0.6-0.4c-0.2-0.1-0.5-0.1-0.7-0.1c-0.5,0-0.9,0.1-1.2,0.4c-0.3,0.3-0.4,0.7-0.4,1.3
		v1.4l0,0.4v7.8H174.6z"/>
</g>
<g class="st0">
	<path class="st1" d="M183.2,73.5c-0.8,0-1.5-0.2-2.1-0.5c-0.6-0.4-1.1-0.9-1.5-1.5c-0.4-0.6-0.6-1.4-0.6-2.2c0-0.8,0.2-1.6,0.6-2.2
		s0.9-1.1,1.5-1.5c0.6-0.4,1.3-0.5,2.1-0.5s1.5,0.2,2.1,0.5c0.6,0.4,1.1,0.9,1.5,1.5c0.4,0.6,0.5,1.4,0.5,2.2c0,0.8-0.2,1.6-0.5,2.2
		c-0.4,0.6-0.9,1.1-1.5,1.5C184.7,73.3,184,73.5,183.2,73.5z M183.2,72.8c0.6,0,1.2-0.1,1.7-0.4c0.5-0.3,0.9-0.7,1.2-1.2
		c0.3-0.5,0.4-1.1,0.4-1.8c0-0.7-0.1-1.3-0.4-1.8c-0.3-0.5-0.7-0.9-1.2-1.2s-1.1-0.4-1.7-0.4s-1.2,0.1-1.7,0.4
		c-0.5,0.3-0.9,0.7-1.2,1.2c-0.3,0.5-0.4,1.1-0.4,1.8c0,0.7,0.1,1.3,0.4,1.8c0.3,0.5,0.7,0.9,1.2,1.2
		C182,72.7,182.5,72.8,183.2,72.8z"/>
</g>
<g class="st0">
	<path class="st1" d="M190.2,73.5v-8.4h0.8v2.3l-0.1-0.3c0.2-0.7,0.6-1.2,1.2-1.6c0.6-0.4,1.2-0.5,2.1-0.5v0.8c0,0-0.1,0-0.1,0
		c0,0-0.1,0-0.1,0c-0.9,0-1.7,0.3-2.2,0.9c-0.5,0.6-0.8,1.4-0.8,2.4v4.4H190.2z"/>
</g>
<g class="st0">
	<path class="st1" d="M207.2,65c0.7,0,1.3,0.1,1.8,0.4c0.5,0.3,0.9,0.7,1.2,1.2s0.4,1.2,0.4,2v4.9h-0.8v-4.8c0-0.9-0.2-1.7-0.7-2.1
		c-0.5-0.5-1.1-0.7-1.9-0.7c-0.6,0-1.2,0.1-1.6,0.4s-0.8,0.6-1.1,1.1c-0.2,0.5-0.4,1.1-0.4,1.7v4.4h-0.8v-4.8c0-0.9-0.2-1.7-0.7-2.1
		c-0.5-0.5-1.1-0.7-1.9-0.7c-0.6,0-1.2,0.1-1.6,0.4s-0.8,0.6-1.1,1.1c-0.2,0.5-0.4,1.1-0.4,1.7v4.4h-0.8v-8.4h0.8v2.3l-0.1-0.3
		c0.2-0.7,0.7-1.2,1.2-1.5c0.6-0.4,1.3-0.6,2.1-0.6c0.8,0,1.5,0.2,2.1,0.6c0.6,0.4,0.9,1,1.1,1.9l-0.3-0.1c0.2-0.7,0.6-1.3,1.3-1.7
		S206.3,65,207.2,65z"/>
	<path class="st1" d="M214.5,63.1c-0.2,0-0.3-0.1-0.5-0.2s-0.2-0.3-0.2-0.4c0-0.2,0.1-0.3,0.2-0.5s0.3-0.2,0.5-0.2
		c0.2,0,0.3,0.1,0.5,0.2c0.1,0.1,0.2,0.3,0.2,0.5s-0.1,0.3-0.2,0.5S214.7,63.1,214.5,63.1z M214.1,73.5v-8.4h0.8v8.4H214.1z"/>
	<path class="st1" d="M222.7,65c0.7,0,1.3,0.1,1.8,0.4c0.5,0.3,0.9,0.7,1.2,1.2c0.3,0.5,0.4,1.2,0.4,2v4.9h-0.8v-4.8
		c0-0.9-0.2-1.7-0.7-2.1s-1.1-0.7-2-0.7c-0.7,0-1.2,0.1-1.7,0.4s-0.8,0.6-1.1,1.1c-0.3,0.5-0.4,1.1-0.4,1.7v4.4h-0.8v-8.4h0.8v2.3
		l-0.1-0.3c0.3-0.7,0.7-1.2,1.3-1.6C221.2,65.2,221.9,65,222.7,65z"/>
	<path class="st1" d="M233,73.2c-0.8,0-1.5-0.2-2.1-0.5s-1.1-0.8-1.5-1.4s-0.6-1.3-0.6-2.1c0-0.8,0.2-1.5,0.6-2.1
		c0.4-0.6,0.9-1.1,1.5-1.4c0.6-0.3,1.3-0.5,2.1-0.5c0.8,0,1.4,0.2,2,0.5s1.1,0.8,1.4,1.4c0.4,0.6,0.5,1.3,0.5,2.2
		c0,0.8-0.2,1.6-0.5,2.2c-0.4,0.6-0.8,1.1-1.4,1.4C234.4,73,233.7,73.2,233,73.2z M233.2,76.6c-0.8,0-1.5-0.1-2.2-0.4
		c-0.7-0.2-1.2-0.6-1.7-1l0.4-0.6c0.4,0.4,0.9,0.7,1.5,0.9c0.6,0.2,1.2,0.3,1.9,0.3c1.1,0,1.9-0.3,2.5-0.8c0.5-0.5,0.8-1.3,0.8-2.5
		v-2.3l0.2-1.2l-0.1-1.2v-2.7h0.8v7.5c0,1.4-0.3,2.4-1,3.1C235.6,76.3,234.5,76.6,233.2,76.6z M233,72.4c0.7,0,1.3-0.1,1.8-0.4
		c0.5-0.3,0.9-0.7,1.2-1.2c0.3-0.5,0.4-1.1,0.4-1.7c0-0.7-0.1-1.2-0.4-1.7c-0.3-0.5-0.7-0.9-1.2-1.2c-0.5-0.3-1.1-0.4-1.8-0.4
		c-0.7,0-1.2,0.1-1.8,0.4s-0.9,0.7-1.2,1.2c-0.3,0.5-0.4,1.1-0.4,1.7c0,0.7,0.1,1.2,0.4,1.7c0.3,0.5,0.7,0.9,1.2,1.2
		C231.8,72.3,232.4,72.4,233,72.4z"/>
	<path class="st1" d="M248.6,73.5c-0.8,0-1.6-0.1-2.4-0.4c-0.7-0.3-1.3-0.6-1.7-1.1l0.4-0.6c0.4,0.4,0.9,0.7,1.6,1
		c0.7,0.3,1.4,0.4,2.1,0.4c0.7,0,1.4-0.1,1.8-0.3s0.8-0.5,1.1-0.8c0.2-0.3,0.3-0.7,0.3-1.1c0-0.5-0.1-0.9-0.4-1.2s-0.6-0.5-1-0.7
		s-0.9-0.3-1.4-0.4c-0.5-0.1-1-0.2-1.5-0.4c-0.5-0.1-1-0.3-1.4-0.5c-0.4-0.2-0.7-0.5-1-0.9s-0.4-0.8-0.4-1.4c0-0.5,0.1-1,0.4-1.5
		c0.3-0.4,0.7-0.8,1.3-1.1s1.3-0.4,2.3-0.4c0.6,0,1.2,0.1,1.8,0.3s1.1,0.4,1.5,0.7l-0.3,0.7c-0.5-0.3-1-0.6-1.5-0.7
		c-0.5-0.2-1.1-0.2-1.6-0.2c-0.7,0-1.3,0.1-1.8,0.3c-0.5,0.2-0.8,0.5-1,0.8c-0.2,0.3-0.3,0.7-0.3,1.1c0,0.5,0.1,0.9,0.4,1.2
		c0.2,0.3,0.6,0.5,1,0.7c0.4,0.2,0.9,0.3,1.4,0.4c0.5,0.1,1,0.2,1.5,0.4c0.5,0.1,0.9,0.3,1.4,0.5c0.4,0.2,0.8,0.5,1,0.9
		c0.3,0.4,0.4,0.8,0.4,1.4c0,0.5-0.1,1-0.4,1.5s-0.7,0.8-1.3,1.1C250.3,73.4,249.5,73.5,248.6,73.5z"/>
</g>
<g class="st0">
	<path class="st1" d="M255.9,76.6V65.1h0.8v2.7l-0.1,1.5l0.2,1.5v5.8H255.9z M260.1,73.5c-0.7,0-1.4-0.2-2-0.5
		c-0.6-0.3-1.1-0.8-1.4-1.5s-0.5-1.4-0.5-2.3s0.2-1.6,0.5-2.3c0.3-0.6,0.8-1.1,1.4-1.5c0.6-0.3,1.3-0.5,2-0.5c0.8,0,1.5,0.2,2.1,0.5
		s1.1,0.9,1.5,1.5c0.4,0.6,0.5,1.4,0.5,2.2s-0.2,1.6-0.5,2.2c-0.4,0.6-0.8,1.1-1.5,1.5S260.9,73.5,260.1,73.5z M260.1,72.8
		c0.6,0,1.2-0.1,1.7-0.4c0.5-0.3,0.9-0.7,1.2-1.2c0.3-0.5,0.4-1.1,0.4-1.8c0-0.7-0.1-1.3-0.4-1.8c-0.3-0.5-0.7-0.9-1.2-1.2
		c-0.5-0.3-1.1-0.4-1.7-0.4s-1.2,0.1-1.7,0.4c-0.5,0.3-0.9,0.7-1.2,1.2c-0.3,0.5-0.4,1.1-0.4,1.8c0,0.7,0.1,1.3,0.4,1.8
		c0.3,0.5,0.7,0.9,1.2,1.2C258.9,72.7,259.4,72.8,260.1,72.8z"/>
</g>
<g class="st0">
	<path class="st1" d="M269.4,73.5c-0.6,0-1.2-0.1-1.6-0.3c-0.5-0.2-0.8-0.5-1-0.8c-0.2-0.4-0.4-0.8-0.4-1.2c0-0.4,0.1-0.8,0.3-1.2
		c0.2-0.3,0.5-0.6,1-0.8s1.1-0.3,1.8-0.3h3.1v0.6h-3.1c-0.9,0-1.5,0.2-1.8,0.5c-0.3,0.3-0.5,0.7-0.5,1.2c0,0.5,0.2,1,0.6,1.3
		c0.4,0.3,1,0.5,1.7,0.5c0.7,0,1.3-0.2,1.8-0.5c0.5-0.3,0.8-0.8,1.1-1.4l0.2,0.5c-0.2,0.6-0.6,1.1-1.1,1.4
		C270.9,73.3,270.2,73.5,269.4,73.5z M272.4,73.5v-1.9l0-0.3v-3.1c0-0.8-0.2-1.4-0.6-1.8c-0.4-0.4-1-0.6-1.8-0.6
		c-0.6,0-1.1,0.1-1.6,0.3s-0.9,0.5-1.3,0.8l-0.4-0.6c0.4-0.4,0.9-0.7,1.5-0.9c0.6-0.2,1.2-0.3,1.8-0.3c1,0,1.8,0.3,2.4,0.8
		s0.8,1.3,0.8,2.3v5.3H272.4z"/>
</g>
<g class="st0">
	<path class="st1" d="M280.1,73.5c-0.8,0-1.5-0.2-2.2-0.5c-0.6-0.4-1.1-0.9-1.5-1.5c-0.4-0.6-0.6-1.4-0.6-2.2c0-0.8,0.2-1.6,0.6-2.2
		c0.4-0.6,0.9-1.1,1.5-1.5s1.4-0.5,2.2-0.5c0.7,0,1.3,0.1,1.8,0.4c0.5,0.3,1,0.6,1.3,1.2l-0.6,0.4c-0.3-0.4-0.7-0.7-1.1-0.9
		c-0.4-0.2-0.9-0.3-1.5-0.3c-0.7,0-1.2,0.1-1.8,0.4s-0.9,0.7-1.2,1.2c-0.3,0.5-0.4,1.1-0.4,1.8s0.1,1.3,0.4,1.8s0.7,0.9,1.2,1.2
		c0.5,0.3,1.1,0.4,1.8,0.4c0.5,0,1-0.1,1.5-0.3c0.4-0.2,0.8-0.5,1.1-0.9l0.6,0.4c-0.3,0.5-0.8,0.9-1.3,1.2
		C281.4,73.4,280.8,73.5,280.1,73.5z"/>
</g>
<g class="st0">
	<path class="st1" d="M289.4,73.5c-0.8,0-1.6-0.2-2.2-0.5c-0.6-0.4-1.2-0.9-1.5-1.5c-0.4-0.6-0.6-1.4-0.6-2.2c0-0.8,0.2-1.6,0.5-2.2
		c0.3-0.6,0.8-1.1,1.4-1.5c0.6-0.4,1.3-0.5,2-0.5c0.8,0,1.4,0.2,2,0.5c0.6,0.4,1.1,0.8,1.4,1.5c0.3,0.6,0.5,1.4,0.5,2.2
		c0,0,0,0.1,0,0.1c0,0,0,0.1,0,0.1h-7.4v-0.6h6.9l-0.3,0.3c0-0.7-0.1-1.2-0.4-1.8c-0.3-0.5-0.7-0.9-1.1-1.2c-0.5-0.3-1-0.4-1.7-0.4
		c-0.6,0-1.2,0.1-1.7,0.4c-0.5,0.3-0.9,0.7-1.1,1.2s-0.4,1.1-0.4,1.8v0.1c0,0.7,0.2,1.3,0.5,1.8s0.7,0.9,1.3,1.2
		c0.5,0.3,1.1,0.4,1.8,0.4c0.5,0,1-0.1,1.5-0.3c0.5-0.2,0.9-0.5,1.2-0.9l0.5,0.5c-0.4,0.4-0.8,0.8-1.4,1
		C290.6,73.4,290,73.5,289.4,73.5z"/>
	<path class="st1" d="M298.1,73.5c-0.7,0-1.3-0.1-1.9-0.3c-0.6-0.2-1.1-0.5-1.4-0.8l0.4-0.6c0.3,0.3,0.7,0.5,1.3,0.7
		s1.1,0.3,1.7,0.3c0.9,0,1.5-0.1,1.9-0.4c0.4-0.3,0.6-0.7,0.6-1.1c0-0.3-0.1-0.6-0.3-0.8s-0.5-0.3-0.8-0.5s-0.7-0.2-1.1-0.3
		c-0.4-0.1-0.8-0.1-1.2-0.2c-0.4-0.1-0.8-0.2-1.1-0.4c-0.3-0.2-0.6-0.4-0.8-0.7c-0.2-0.3-0.3-0.7-0.3-1.1c0-0.4,0.1-0.8,0.4-1.2
		c0.2-0.3,0.6-0.6,1.1-0.8c0.5-0.2,1.1-0.3,1.8-0.3c0.5,0,1,0.1,1.6,0.2c0.5,0.1,1,0.3,1.3,0.6l-0.4,0.6c-0.4-0.3-0.7-0.5-1.2-0.6
		c-0.4-0.1-0.9-0.2-1.3-0.2c-0.8,0-1.4,0.1-1.8,0.4s-0.6,0.7-0.6,1.1c0,0.4,0.1,0.6,0.3,0.8s0.5,0.4,0.8,0.5
		c0.3,0.1,0.7,0.2,1.1,0.3c0.4,0.1,0.8,0.1,1.2,0.2c0.4,0.1,0.8,0.2,1.1,0.4c0.3,0.2,0.6,0.4,0.8,0.6c0.2,0.3,0.3,0.6,0.3,1.1
		c0,0.5-0.1,0.9-0.4,1.2c-0.2,0.3-0.6,0.6-1.1,0.8C299.4,73.4,298.8,73.5,298.1,73.5z"/>
	<path class="st1" d="M303.4,75.7L304,73l0.1,0.5c-0.2,0-0.4-0.1-0.5-0.2c-0.1-0.1-0.2-0.3-0.2-0.5s0.1-0.4,0.2-0.5
		c0.1-0.1,0.3-0.2,0.5-0.2c0.2,0,0.4,0.1,0.5,0.2c0.1,0.1,0.2,0.3,0.2,0.5c0,0.1,0,0.1,0,0.2c0,0.1,0,0.1,0,0.2c0,0.1,0,0.2-0.1,0.3
		l-0.6,2.2H303.4z"/>
	<path class="st1" d="M312.7,73.5V62.3h0.8v11.2H312.7z"/>
	<path class="st1" d="M321.7,65c0.7,0,1.3,0.1,1.8,0.4c0.5,0.3,0.9,0.7,1.2,1.2s0.4,1.2,0.4,2v4.9h-0.8v-4.8c0-0.9-0.2-1.7-0.7-2.1
		s-1.1-0.7-2-0.7c-0.7,0-1.2,0.1-1.7,0.4s-0.8,0.6-1.1,1.1c-0.3,0.5-0.4,1.1-0.4,1.7v4.4h-0.8v-8.4h0.8v2.3l-0.1-0.3
		c0.3-0.7,0.7-1.2,1.3-1.6C320.1,65.2,320.8,65,321.7,65z"/>
	<path class="st1" d="M331,73.5c-0.7,0-1.3-0.1-1.9-0.3c-0.6-0.2-1.1-0.5-1.4-0.8l0.4-0.6c0.3,0.3,0.7,0.5,1.3,0.7s1.1,0.3,1.7,0.3
		c0.9,0,1.5-0.1,1.9-0.4c0.4-0.3,0.6-0.7,0.6-1.1c0-0.3-0.1-0.6-0.3-0.8s-0.5-0.3-0.8-0.5s-0.7-0.2-1.1-0.3
		c-0.4-0.1-0.8-0.1-1.2-0.2c-0.4-0.1-0.8-0.2-1.1-0.4c-0.3-0.2-0.6-0.4-0.8-0.7c-0.2-0.3-0.3-0.7-0.3-1.1c0-0.4,0.1-0.8,0.4-1.2
		c0.2-0.3,0.6-0.6,1.1-0.8c0.5-0.2,1.1-0.3,1.8-0.3c0.5,0,1,0.1,1.6,0.2c0.5,0.1,1,0.3,1.3,0.6l-0.4,0.6c-0.4-0.3-0.7-0.5-1.2-0.6
		c-0.4-0.1-0.9-0.2-1.3-0.2c-0.8,0-1.4,0.1-1.8,0.4s-0.6,0.7-0.6,1.1c0,0.4,0.1,0.6,0.3,0.8s0.5,0.4,0.8,0.5
		c0.3,0.1,0.7,0.2,1.1,0.3c0.4,0.1,0.8,0.1,1.2,0.2c0.4,0.1,0.8,0.2,1.1,0.4c0.3,0.2,0.6,0.4,0.8,0.6c0.2,0.3,0.3,0.6,0.3,1.1
		c0,0.5-0.1,0.9-0.4,1.2c-0.2,0.3-0.6,0.6-1.1,0.8C332.3,73.4,331.7,73.5,331,73.5z"/>
	<path class="st1" d="M337,76.6V65.1h0.8v2.7l-0.1,1.5l0.2,1.5v5.8H337z M341.2,73.5c-0.7,0-1.4-0.2-2-0.5c-0.6-0.3-1.1-0.8-1.4-1.5
		c-0.3-0.6-0.5-1.4-0.5-2.3s0.2-1.6,0.5-2.3c0.3-0.6,0.8-1.1,1.4-1.5c0.6-0.3,1.3-0.5,2-0.5c0.8,0,1.5,0.2,2.1,0.5s1.1,0.9,1.5,1.5
		c0.4,0.6,0.5,1.4,0.5,2.2s-0.2,1.6-0.5,2.2c-0.4,0.6-0.8,1.1-1.5,1.5S342,73.5,341.2,73.5z M341.1,72.8c0.6,0,1.2-0.1,1.7-0.4
		c0.5-0.3,0.9-0.7,1.2-1.2c0.3-0.5,0.4-1.1,0.4-1.8c0-0.7-0.1-1.3-0.4-1.8c-0.3-0.5-0.7-0.9-1.2-1.2s-1.1-0.4-1.7-0.4
		c-0.6,0-1.2,0.1-1.7,0.4s-0.9,0.7-1.2,1.2c-0.3,0.5-0.4,1.1-0.4,1.8c0,0.7,0.1,1.3,0.4,1.8s0.7,0.9,1.2,1.2
		C339.9,72.7,340.5,72.8,341.1,72.8z"/>
	<path class="st1" d="M348.7,63.1c-0.2,0-0.3-0.1-0.5-0.2c-0.1-0.1-0.2-0.3-0.2-0.4c0-0.2,0.1-0.3,0.2-0.5c0.1-0.1,0.3-0.2,0.5-0.2
		c0.2,0,0.3,0.1,0.5,0.2c0.1,0.1,0.2,0.3,0.2,0.5s-0.1,0.3-0.2,0.5S348.8,63.1,348.7,63.1z M348.3,73.5v-8.4h0.8v8.4H348.3z"/>
</g>
<g class="st0">
	<path class="st1" d="M352.2,73.5v-8.4h0.8v2.3l-0.1-0.3c0.2-0.7,0.6-1.2,1.2-1.6c0.6-0.4,1.2-0.5,2.1-0.5v0.8c0,0-0.1,0-0.1,0
		c0,0-0.1,0-0.1,0c-0.9,0-1.7,0.3-2.2,0.9c-0.5,0.6-0.8,1.4-0.8,2.4v4.4H352.2z"/>
</g>
<g class="st0">
	<path class="st1" d="M359.2,63.1c-0.2,0-0.3-0.1-0.5-0.2c-0.1-0.1-0.2-0.3-0.2-0.4c0-0.2,0.1-0.3,0.2-0.5c0.1-0.1,0.3-0.2,0.5-0.2
		c0.2,0,0.3,0.1,0.5,0.2c0.1,0.1,0.2,0.3,0.2,0.5s-0.1,0.3-0.2,0.5S359.3,63.1,359.2,63.1z M358.8,73.5v-8.4h0.8v8.4H358.8z"/>
	<path class="st1" d="M367.5,65c0.7,0,1.3,0.1,1.8,0.4c0.5,0.3,0.9,0.7,1.2,1.2s0.4,1.2,0.4,2v4.9h-0.8v-4.8c0-0.9-0.2-1.7-0.7-2.1
		s-1.1-0.7-2-0.7c-0.7,0-1.2,0.1-1.7,0.4s-0.8,0.6-1.1,1.1c-0.3,0.5-0.4,1.1-0.4,1.7v4.4h-0.8v-8.4h0.8v2.3l-0.1-0.3
		c0.3-0.7,0.7-1.2,1.3-1.6C365.9,65.2,366.6,65,367.5,65z"/>
	<path class="st1" d="M377.9,73.2c-0.8,0-1.5-0.2-2.1-0.5s-1.1-0.8-1.5-1.4s-0.6-1.3-0.6-2.1c0-0.8,0.2-1.5,0.6-2.1
		c0.4-0.6,0.9-1.1,1.5-1.4c0.6-0.3,1.3-0.5,2.1-0.5c0.8,0,1.4,0.2,2,0.5c0.6,0.3,1.1,0.8,1.4,1.4s0.5,1.3,0.5,2.2
		c0,0.8-0.2,1.6-0.5,2.2s-0.8,1.1-1.4,1.4C379.3,73,378.7,73.2,377.9,73.2z M378.1,76.6c-0.8,0-1.5-0.1-2.2-0.4
		c-0.7-0.2-1.2-0.6-1.7-1l0.4-0.6c0.4,0.4,0.9,0.7,1.5,0.9c0.6,0.2,1.2,0.3,1.9,0.3c1.1,0,1.9-0.3,2.5-0.8s0.8-1.3,0.8-2.5v-2.3
		l0.2-1.2l-0.1-1.2v-2.7h0.8v7.5c0,1.4-0.3,2.4-1,3.1C380.5,76.3,379.5,76.6,378.1,76.6z M378,72.4c0.7,0,1.3-0.1,1.8-0.4
		c0.5-0.3,0.9-0.7,1.2-1.2c0.3-0.5,0.4-1.1,0.4-1.7c0-0.7-0.1-1.2-0.4-1.7c-0.3-0.5-0.7-0.9-1.2-1.2s-1.1-0.4-1.8-0.4
		c-0.7,0-1.2,0.1-1.8,0.4s-0.9,0.7-1.2,1.2c-0.3,0.5-0.4,1.1-0.4,1.7c0,0.7,0.1,1.2,0.4,1.7s0.7,0.9,1.2,1.2
		C376.7,72.3,377.3,72.4,378,72.4z"/>
	<path class="st1" d="M390.9,73.5V62.3h0.8v10.5h6.4v0.7H390.9z"/>
	<path class="st1" d="M400.9,63.1c-0.2,0-0.3-0.1-0.5-0.2s-0.2-0.3-0.2-0.4c0-0.2,0.1-0.3,0.2-0.5s0.3-0.2,0.5-0.2
		c0.2,0,0.3,0.1,0.5,0.2c0.1,0.1,0.2,0.3,0.2,0.5s-0.1,0.3-0.2,0.5C401.2,63,401.1,63.1,400.9,63.1z M400.5,73.5v-8.4h0.8v8.4H400.5
		z"/>
</g>
<g class="st0">
	<path class="st1" d="M406.8,73.5l-3.8-8.4h0.8l3.5,7.9H407l3.6-7.9h0.8l-3.8,8.4H406.8z"/>
</g>
<g class="st0">
	<path class="st1" d="M416.7,73.5c-0.8,0-1.6-0.2-2.2-0.5c-0.6-0.4-1.2-0.9-1.5-1.5c-0.4-0.6-0.6-1.4-0.6-2.2c0-0.8,0.2-1.6,0.5-2.2
		s0.8-1.1,1.4-1.5c0.6-0.4,1.3-0.5,2-0.5c0.8,0,1.4,0.2,2,0.5c0.6,0.4,1.1,0.8,1.4,1.5s0.5,1.4,0.5,2.2c0,0,0,0.1,0,0.1
		c0,0,0,0.1,0,0.1h-7.4v-0.6h6.9l-0.3,0.3c0-0.7-0.1-1.2-0.4-1.8c-0.3-0.5-0.7-0.9-1.1-1.2c-0.5-0.3-1-0.4-1.7-0.4
		c-0.6,0-1.2,0.1-1.7,0.4c-0.5,0.3-0.9,0.7-1.1,1.2s-0.4,1.1-0.4,1.8v0.1c0,0.7,0.2,1.3,0.5,1.8c0.3,0.5,0.7,0.9,1.3,1.2
		c0.5,0.3,1.1,0.4,1.8,0.4c0.5,0,1-0.1,1.5-0.3c0.5-0.2,0.9-0.5,1.2-0.9l0.5,0.5c-0.4,0.4-0.8,0.8-1.4,1
		C417.9,73.4,417.3,73.5,416.7,73.5z"/>
	<path class="st1" d="M425.4,73.5c-0.7,0-1.3-0.1-1.9-0.3c-0.6-0.2-1.1-0.5-1.4-0.8l0.4-0.6c0.3,0.3,0.7,0.5,1.3,0.7
		s1.1,0.3,1.7,0.3c0.9,0,1.5-0.1,1.9-0.4s0.6-0.7,0.6-1.1c0-0.3-0.1-0.6-0.3-0.8s-0.5-0.3-0.8-0.5c-0.3-0.1-0.7-0.2-1.1-0.3
		c-0.4-0.1-0.8-0.1-1.2-0.2c-0.4-0.1-0.8-0.2-1.1-0.4c-0.3-0.2-0.6-0.4-0.8-0.7c-0.2-0.3-0.3-0.7-0.3-1.1c0-0.4,0.1-0.8,0.4-1.2
		c0.2-0.3,0.6-0.6,1.1-0.8c0.5-0.2,1.1-0.3,1.8-0.3c0.5,0,1,0.1,1.6,0.2c0.5,0.1,1,0.3,1.3,0.6l-0.4,0.6c-0.4-0.3-0.7-0.5-1.2-0.6
		s-0.9-0.2-1.3-0.2c-0.8,0-1.4,0.1-1.8,0.4c-0.4,0.3-0.6,0.7-0.6,1.1c0,0.4,0.1,0.6,0.3,0.8s0.5,0.4,0.8,0.5
		c0.3,0.1,0.7,0.2,1.1,0.3s0.8,0.1,1.2,0.2c0.4,0.1,0.8,0.2,1.1,0.4c0.3,0.2,0.6,0.4,0.8,0.6c0.2,0.3,0.3,0.6,0.3,1.1
		c0,0.5-0.1,0.9-0.4,1.2c-0.3,0.3-0.6,0.6-1.1,0.8C426.7,73.4,426.1,73.5,425.4,73.5z"/>
</g>
<g class="st0">
	<path class="st1" d="M138.5,51.4c-2,0-3.9-0.4-5.6-1.1c-1.7-0.8-3.1-1.8-4.2-3.2l3.9-4.6c0.8,1.1,1.7,1.9,2.6,2.5
		c0.9,0.6,1.9,0.8,3,0.8c2.8,0,4.3-1.7,4.3-5V26.4h-10.6v-5.6h17.5v19.5c0,3.7-0.9,6.5-2.8,8.3C144.7,50.5,142,51.4,138.5,51.4z"/>
	<path class="st1" d="M165.9,51.2c-2.6,0-5-0.5-6.9-1.5c-2-1-3.5-2.4-4.6-4.2c-1.1-1.8-1.6-3.8-1.6-6.1c0-2.3,0.5-4.4,1.6-6.2
		c1.1-1.8,2.5-3.2,4.4-4.2c1.9-1,4-1.5,6.3-1.5c2.3,0,4.3,0.5,6.1,1.4c1.8,1,3.3,2.3,4.3,4.1c1.1,1.8,1.6,3.9,1.6,6.4
		c0,0.3,0,0.6,0,0.9c0,0.3-0.1,0.6-0.1,0.9h-18.8v-3.9h15.3l-2.6,1.2c0-1.2-0.2-2.2-0.7-3.1c-0.5-0.9-1.2-1.6-2-2.1
		c-0.9-0.5-1.9-0.8-3-0.8s-2.2,0.3-3,0.8c-0.9,0.5-1.6,1.2-2,2.1c-0.5,0.9-0.7,2-0.7,3.2v1c0,1.3,0.3,2.4,0.8,3.3
		c0.6,1,1.3,1.7,2.4,2.2c1,0.5,2.2,0.8,3.6,0.8c1.2,0,2.3-0.2,3.2-0.6c0.9-0.4,1.8-0.9,2.6-1.7l3.6,3.9c-1.1,1.2-2.4,2.1-4,2.8
		C169.8,50.9,168,51.2,165.9,51.2z"/>
	<path class="st1" d="M194.3,27.4c1.8,0,3.5,0.4,4.9,1.1c1.4,0.7,2.6,1.8,3.4,3.4c0.8,1.5,1.2,3.4,1.2,5.8v13.2h-6.7V38.7
		c0-1.9-0.4-3.2-1.2-4.1s-2-1.3-3.5-1.3c-1.1,0-2,0.2-2.9,0.7c-0.8,0.4-1.5,1.1-2,2c-0.5,0.9-0.7,2.1-0.7,3.5v11.4h-6.7V27.8h6.4
		v6.4l-1.2-1.9c0.8-1.5,2-2.7,3.6-3.6C190.6,27.8,192.3,27.4,194.3,27.4z"/>
	<path class="st1" d="M216.5,51.2c-2,0-3.9-0.2-5.7-0.7c-1.8-0.5-3.3-1.1-4.3-1.8l2.2-4.8c1.1,0.7,2.3,1.2,3.8,1.6
		c1.4,0.4,2.9,0.6,4.3,0.6c1.5,0,2.6-0.2,3.3-0.6c0.6-0.4,1-0.9,1-1.5c0-0.5-0.3-1-0.8-1.2c-0.5-0.3-1.2-0.5-2-0.6
		c-0.8-0.1-1.7-0.3-2.7-0.4c-1-0.1-2-0.3-3-0.6c-1-0.2-1.9-0.6-2.8-1.1c-0.8-0.5-1.5-1.1-2-2c-0.5-0.8-0.8-1.9-0.8-3.2
		c0-1.5,0.4-2.8,1.3-3.9c0.8-1.1,2.1-2,3.7-2.6c1.6-0.6,3.5-1,5.8-1c1.6,0,3.2,0.2,4.8,0.5c1.6,0.3,3,0.8,4.1,1.5l-2.2,4.8
		c-1.1-0.7-2.2-1.1-3.4-1.4s-2.2-0.4-3.3-0.4c-1.5,0-2.6,0.2-3.3,0.6s-1,0.9-1,1.5c0,0.6,0.3,1,0.8,1.3c0.5,0.3,1.2,0.5,2,0.7
		c0.8,0.2,1.7,0.3,2.7,0.5c1,0.1,2,0.3,3,0.6c1,0.3,1.9,0.6,2.7,1.1s1.5,1.1,2,1.9c0.5,0.8,0.8,1.9,0.8,3.2c0,1.4-0.4,2.7-1.3,3.8
		s-2.1,2-3.7,2.6C220.8,50.9,218.8,51.2,216.5,51.2z"/>
	<path class="st1" d="M241.7,51.2c-2.6,0-5-0.5-6.9-1.5c-2-1-3.5-2.4-4.6-4.2c-1.1-1.8-1.6-3.8-1.6-6.1c0-2.3,0.5-4.4,1.6-6.2
		c1.1-1.8,2.5-3.2,4.4-4.2s4-1.5,6.3-1.5c2.3,0,4.3,0.5,6.1,1.4c1.8,1,3.3,2.3,4.3,4.1c1.1,1.8,1.6,3.9,1.6,6.4c0,0.3,0,0.6,0,0.9
		c0,0.3-0.1,0.6-0.1,0.9H234v-3.9h15.3l-2.6,1.2c0-1.2-0.2-2.2-0.7-3.1c-0.5-0.9-1.2-1.6-2-2.1c-0.9-0.5-1.9-0.8-3-0.8
		s-2.2,0.3-3,0.8c-0.9,0.5-1.6,1.2-2,2.1c-0.5,0.9-0.7,2-0.7,3.2v1c0,1.3,0.3,2.4,0.8,3.3c0.6,1,1.3,1.7,2.4,2.2s2.2,0.8,3.6,0.8
		c1.2,0,2.3-0.2,3.2-0.6c0.9-0.4,1.8-0.9,2.6-1.7l3.6,3.9c-1.1,1.2-2.4,2.1-4,2.8C245.6,50.9,243.8,51.2,241.7,51.2z"/>
	<path class="st1" d="M270.1,27.4c1.8,0,3.5,0.4,4.9,1.1c1.4,0.7,2.6,1.8,3.4,3.4c0.8,1.5,1.2,3.4,1.2,5.8v13.2H273V38.7
		c0-1.9-0.4-3.2-1.2-4.1c-0.8-0.9-2-1.3-3.5-1.3c-1.1,0-2,0.2-2.9,0.7c-0.8,0.4-1.5,1.1-2,2c-0.5,0.9-0.7,2.1-0.7,3.5v11.4h-6.7
		V27.8h6.4v6.4l-1.2-1.9c0.8-1.5,2-2.7,3.6-3.6C266.4,27.8,268.2,27.4,270.1,27.4z"/>
	<path class="st1" d="M285,50.9V20.8h13.7c3.3,0,6.1,0.6,8.6,1.9s4.4,3,5.8,5.2s2.1,4.9,2.1,8c0,3-0.7,5.7-2.1,7.9
		c-1.4,2.3-3.4,4-5.8,5.2c-2.5,1.2-5.4,1.9-8.6,1.9H285z M291.9,45.2h6.4c2,0,3.7-0.4,5.2-1.1s2.6-1.8,3.4-3.2
		c0.8-1.4,1.2-3.1,1.2-4.9c0-1.9-0.4-3.6-1.2-5c-0.8-1.4-2-2.5-3.4-3.2s-3.2-1.1-5.2-1.1h-6.4V45.2z"/>
	<path class="st1" d="M330.2,51.2c-2.6,0-5-0.5-6.9-1.5c-2-1-3.5-2.4-4.6-4.2c-1.1-1.8-1.6-3.8-1.6-6.1c0-2.3,0.5-4.4,1.6-6.2
		c1.1-1.8,2.5-3.2,4.4-4.2c1.9-1,4-1.5,6.3-1.5c2.3,0,4.3,0.5,6.1,1.4c1.8,1,3.3,2.3,4.3,4.1s1.6,3.9,1.6,6.4c0,0.3,0,0.6,0,0.9
		c0,0.3-0.1,0.6-0.1,0.9h-18.8v-3.9h15.3l-2.6,1.2c0-1.2-0.2-2.2-0.7-3.1c-0.5-0.9-1.2-1.6-2-2.1c-0.9-0.5-1.9-0.8-3-0.8
		s-2.2,0.3-3,0.8c-0.9,0.5-1.6,1.2-2,2.1c-0.5,0.9-0.7,2-0.7,3.2v1c0,1.3,0.3,2.4,0.8,3.3c0.6,1,1.3,1.7,2.4,2.2
		c1,0.5,2.2,0.8,3.6,0.8c1.2,0,2.3-0.2,3.2-0.6c0.9-0.4,1.8-0.9,2.6-1.7l3.6,3.9c-1.1,1.2-2.4,2.1-4,2.8
		C334.1,50.9,332.3,51.2,330.2,51.2z"/>
</g>
<g class="st0">
	<path class="st1" d="M354,51.2c-2.5,0-4.7-0.5-6.7-1.5c-2-1-3.5-2.4-4.6-4.2s-1.7-3.9-1.7-6.1c0-2.3,0.6-4.4,1.7-6.2
		c1.1-1.8,2.6-3.2,4.6-4.2c1.9-1,4.2-1.5,6.7-1.5c2.4,0,4.6,0.5,6.4,1.5c1.8,1,3.1,2.5,4,4.4l-5.2,2.8c-0.6-1.1-1.4-1.9-2.3-2.4
		c-0.9-0.5-1.9-0.8-2.9-0.8c-1.1,0-2.2,0.3-3.1,0.8c-0.9,0.5-1.6,1.2-2.2,2.2c-0.5,0.9-0.8,2.1-0.8,3.4c0,1.3,0.3,2.5,0.8,3.4
		c0.5,0.9,1.3,1.7,2.2,2.2c0.9,0.5,1.9,0.8,3.1,0.8c1.1,0,2-0.2,2.9-0.8s1.7-1.3,2.3-2.4l5.2,2.8c-0.9,1.9-2.2,3.3-4,4.3
		C358.6,50.7,356.5,51.2,354,51.2z"/>
</g>
<g class="st0">
	<path class="st1" d="M377.5,51.2c-2.5,0-4.7-0.5-6.6-1.5c-1.9-1-3.4-2.4-4.5-4.2c-1.1-1.8-1.7-3.8-1.7-6.1c0-2.3,0.6-4.4,1.7-6.2
		c1.1-1.8,2.6-3.2,4.5-4.2c1.9-1,4.1-1.5,6.6-1.5c2.4,0,4.6,0.5,6.5,1.5c1.9,1,3.4,2.4,4.5,4.2c1.1,1.8,1.6,3.8,1.6,6.2
		c0,2.3-0.5,4.3-1.6,6.1c-1.1,1.8-2.6,3.2-4.5,4.2C382.1,50.7,379.9,51.2,377.5,51.2z M377.5,45.7c1.1,0,2.1-0.3,3-0.8
		c0.9-0.5,1.6-1.3,2.1-2.2c0.5-1,0.8-2.1,0.8-3.4c0-1.3-0.3-2.5-0.8-3.4c-0.5-0.9-1.2-1.7-2.1-2.2c-0.9-0.5-1.9-0.8-3-0.8
		s-2.1,0.3-3,0.8c-0.9,0.5-1.6,1.2-2.1,2.2c-0.5,0.9-0.8,2.1-0.8,3.4c0,1.3,0.3,2.5,0.8,3.4c0.5,1,1.2,1.7,2.1,2.2
		C375.3,45.5,376.3,45.7,377.5,45.7z"/>
	<path class="st1" d="M392.9,50.9V27.8h6.4v6.5l-0.9-1.9c0.7-1.6,1.8-2.9,3.3-3.7c1.5-0.8,3.4-1.3,5.5-1.3v6.2c-0.3,0-0.5,0-0.8-0.1
		c-0.2,0-0.5,0-0.7,0c-1.8,0-3.3,0.5-4.5,1.6c-1.1,1-1.7,2.7-1.7,4.9v10.9H392.9z"/>
	<path class="st1" d="M417.6,51.2c-2,0-3.9-0.2-5.7-0.7c-1.8-0.5-3.3-1.1-4.3-1.8l2.2-4.8c1.1,0.7,2.3,1.2,3.8,1.6
		c1.4,0.4,2.9,0.6,4.3,0.6c1.5,0,2.6-0.2,3.3-0.6c0.6-0.4,1-0.9,1-1.5c0-0.5-0.3-1-0.8-1.2c-0.5-0.3-1.2-0.5-2-0.6
		c-0.8-0.1-1.7-0.3-2.7-0.4c-1-0.1-2-0.3-3-0.6c-1-0.2-1.9-0.6-2.8-1.1s-1.5-1.1-2-2c-0.5-0.8-0.8-1.9-0.8-3.2
		c0-1.5,0.4-2.8,1.3-3.9s2.1-2,3.7-2.6c1.6-0.6,3.5-1,5.8-1c1.6,0,3.2,0.2,4.8,0.5s3,0.8,4.1,1.5l-2.2,4.8c-1.1-0.7-2.2-1.1-3.4-1.4
		c-1.1-0.2-2.2-0.4-3.3-0.4c-1.5,0-2.6,0.2-3.3,0.6c-0.7,0.4-1,0.9-1,1.5c0,0.6,0.3,1,0.8,1.3c0.5,0.3,1.2,0.5,2,0.7
		c0.8,0.2,1.7,0.3,2.7,0.5s2,0.3,3,0.6c1,0.3,1.9,0.6,2.7,1.1c0.8,0.5,1.5,1.1,2,1.9c0.5,0.8,0.8,1.9,0.8,3.2c0,1.4-0.4,2.7-1.3,3.8
		c-0.9,1.1-2.1,2-3.7,2.6C421.9,50.9,419.9,51.2,417.6,51.2z"/>
</g>
</svg>
