<svg id="e7e086fc-6adb-4743-bc6b-587c1d346e05" data-name="Layer 1" xmlns="http://www.w3.org/2000/svg" viewBox="0 0 97.02 96.97"><path d="M48.43,15.54c1.35-1.46,2.33-2.58,3.38-3.64C55.43,8.25,59.09,4.64,62.7,1a3,3,0,0,1,2.37-1c5.84,0,11.68,0,17.52,0h1.49c0,.51.13.93.13,1.36,0,8.08.05,16.17,0,24.26a12.64,12.64,0,0,1-13.7,12.5c-7-.47-12.28-7-11.69-14.1a13,13,0,0,1,9.4-11.53,28.19,28.19,0,0,1,7.54-.41v4.72l-1.69.07a28.74,28.74,0,0,0-4.17.25c-4.26.86-6.73,4.7-6.1,9.23a7.68,7.68,0,0,0,8.3,6.94,7.85,7.85,0,0,0,7.27-7.6c.06-1.64,0-3.29,0-4.94V5c-.58,0-1-.11-1.44-.11-3.65,0-7.29,0-10.94,0a2.81,2.81,0,0,0-2.22,1q-6.48,6.54-13,13a2.64,2.64,0,0,0-.84,2.11q0,6.15,0,12.28a2.71,2.71,0,0,0,.87,2.11q5,4.94,10,9.95a2.33,2.33,0,0,0,1.83.78q6.3-.06,12.58,0a2.83,2.83,0,0,0,2.22-1c4.33-4.35,8.7-8.66,13-13a2.45,2.45,0,0,0,.78-1.5c0-4.09,0-8.18,0-12.28a3,3,0,0,0-.17-.62H88.14V12.89H97v1.56c0,5.79,0,11.58,0,17.37a3.15,3.15,0,0,1-1,2.49c-4.44,4.38-8.84,8.81-13.25,13.22-.28.28-.53.58-.87.95.37.39.69.75,1,1.1C87.28,54,91.64,58.35,96,62.71a3,3,0,0,1,1,2.35c0,5.85,0,11.69,0,17.53v1.49c-.5,0-.92.13-1.35.13-8,0-16.07.05-24.11,0A12.62,12.62,0,0,1,58.83,71.86,12.15,12.15,0,0,1,66.22,60a13.06,13.06,0,0,1,18.33,8.45,20.86,20.86,0,0,1,.18,7.33,7.6,7.6,0,0,1-.85.1H80.2c-.06-.48-.14-.85-.15-1.23,0-1.15,0-2.3,0-3.45a7.85,7.85,0,0,0-8.37-7.55,11.54,11.54,0,0,0-1.18.16c-4.4.76-7.16,4.12-6.79,8.26a7.91,7.91,0,0,0,8,7.32c6.19,0,12.38,0,18.57,0H92a9.94,9.94,0,0,0,.14-1.22c0-3.79,0-7.59,0-11.38a2.34,2.34,0,0,0-.8-1.82q-6.64-6.6-13.23-13.25a2.6,2.6,0,0,0-2-.82q-6.21.06-12.43,0a2.68,2.68,0,0,0-2.11.86q-4.95,5-9.95,10a2.34,2.34,0,0,0-.79,1.83q0,6.06,0,12.13A3.51,3.51,0,0,0,52,78.45q6.36,6.22,12.6,12.6a3.31,3.31,0,0,0,2.63,1.07c3.49-.06,7,0,10.48,0,.49,0,1,0,1.54-.07.08-.8.16-1.52.24-2.32h4.6v7.12A11.57,11.57,0,0,1,83,97c-6,0-12.08,0-18.12,0A2.65,2.65,0,0,1,62.76,96q-6.54-6.6-13.12-13.15c-.34-.34-.71-.66-1.16-1.07l-3,3C41.73,88.55,38,92.28,34.26,96a2.53,2.53,0,0,1-1.92.93c-6.14,0-12.28,0-18.43,0-.29,0-.58,0-1-.09,0-.41-.12-.79-.12-1.17,0-8.14-.06-16.28,0-24.42A12.64,12.64,0,0,1,25.39,58.79,13.1,13.1,0,0,1,29.05,84.4a21.89,21.89,0,0,1-7.8.29V80.05h4.16a7.57,7.57,0,0,0,6.24-3c2.05-2.55,2.13-5.43,1.08-8.36a7.25,7.25,0,0,0-6.19-5,7.87,7.87,0,0,0-8.87,7.45c-.08,1.7,0,3.4,0,5.1V91.93a10.12,10.12,0,0,0,1.21.16c3.79,0,7.58,0,11.38,0a2.4,2.4,0,0,0,1.85-.75q6.6-6.63,13.26-13.2a2.32,2.32,0,0,0,.78-1.83q-.06-6.3,0-12.58a2.67,2.67,0,0,0-.87-2.1q-5-4.89-9.85-9.85a2.69,2.69,0,0,0-2.1-.89q-6.21,0-12.43,0a2.56,2.56,0,0,0-2,.8C14.44,56.16,10,60.6,5.56,65.07a2.28,2.28,0,0,0-.69,1.38c0,4.15,0,8.29,0,12.43a1.88,1.88,0,0,0,.16.46H8.87v4.85c-2.85,0-5.71,0-8.72,0,0-.5-.12-.93-.12-1.36,0-6,0-12,0-18a2.76,2.76,0,0,1,.91-2.09c4.47-4.43,8.9-8.89,13.34-13.34.28-.28.54-.58.91-1-1-1-1.92-2-2.89-3C8.52,41.72,4.78,38,1,34.28a3,3,0,0,1-1-2.35C0,26.09,0,20.25,0,14.4c0-.48.05-1,.07-1.56.59,0,1.08-.09,1.56-.09,7.74,0,15.48,0,23.22,0a13,13,0,0,1,9.62,3.77,12.63,12.63,0,0,1,2.79,13.7,12.86,12.86,0,0,1-11.66,8,13,13,0,0,1-13-9.06,21.1,21.1,0,0,1-.32-8h4.57c0,.61.1,1.13.11,1.66,0,.9,0,1.8,0,2.69a7.81,7.81,0,0,0,6.09,7.7,8.63,8.63,0,0,0,9.55-4.23,7.89,7.89,0,0,0-6.23-11.2A12.21,12.21,0,0,0,25,17.64H6.47c-.48,0-1,0-1.53.07,0,.5-.1.89-.1,1.27,0,3.7,0,7.39,0,11.09a2.66,2.66,0,0,0,.9,2.08q6.5,6.42,12.92,12.92A3,3,0,0,0,21,46q6.14-.06,12.28,0a2.67,2.67,0,0,0,2.1-.87q4.89-5,9.85-9.85a2.68,2.68,0,0,0,.87-2.11q-.06-6.14,0-12.28a2.71,2.71,0,0,0-.84-2.11c-4.4-4.35-8.77-8.74-13.14-13.12a2.24,2.24,0,0,0-1.66-.85c-4,0-8.09,0-12.13,0a5.72,5.72,0,0,0-.65.14V8.86H12.94V.15c.4,0,.78-.12,1.16-.12,6,0,12.08,0,18.12,0a2.67,2.67,0,0,1,2.07,1c4.33,4.36,8.68,8.69,13,13A14.17,14.17,0,0,1,48.43,15.54Zm.21,23.76-9.3,9.16,9.2,9.3,9.31-9.3Z"/></svg>