<svg xmlns="http://www.w3.org/2000/svg" viewBox="0 0 15.46 16.08"><defs><style>.a51a617b-dd10-417f-a701-a0ab58c0dfd1{fill:#262626;}</style></defs><g id="b81e4326-145b-4658-ae56-72c2d3b814db" data-name="Product page"><path class="a51a617b-dd10-417f-a701-a0ab58c0dfd1" d="M7.11,15.93H3.22A3.28,3.28,0,0,1,0,12.67c0-.53,0-1.08.05-1.6l0-.65c0-.92.07-1.83.1-2.75L.19,6.09c0-.31,0-.62,0-.94,0-.65,0-1.32.07-2a3.29,3.29,0,0,1,2.8-3,3.58,3.58,0,0,1,.45,0h8.33A3.25,3.25,0,0,1,15,2.64a5.7,5.7,0,0,1,.12,1.1h0c.05,1,.08,2.13.12,3.16,0,.38,0,.75,0,1.13s0,.89,0,1.32c0,1,.07,2,.14,3a3.34,3.34,0,0,1-2.22,3.41,3.56,3.56,0,0,1-1,.16ZM.9,9.36c0,1-.08,2.09-.12,3.13a2.51,2.51,0,0,0,.68,1.86,2.49,2.49,0,0,0,1.79.75h9a2.2,2.2,0,0,0,.53-.06,2.55,2.55,0,0,0,1.9-2.59c0-.66-.05-1.34-.08-2,0-.35,0-.7,0-1,0-.51,0-1,0-1.51-.06-1.5-.11-3-.18-4.58a2.63,2.63,0,0,0-.15-.78A2.37,2.37,0,0,0,11.91,1H3.54A2.43,2.43,0,0,0,1.13,3.25C1.08,4.35,1,5.48,1,6.56L.94,8v.16h0C.93,8.55.91,9,.9,9.36Z"/><path class="a51a617b-dd10-417f-a701-a0ab58c0dfd1" d="M7.71,6.74A3.89,3.89,0,0,1,5,5.62,3.81,3.81,0,0,1,3.86,2.93c0-.31.13-.47.4-.48h0c.27,0,.41.16.41.46a3,3,0,0,0,2.74,3,1.83,1.83,0,0,0,.33,0,3,3,0,0,0,2.91-2.27,3.74,3.74,0,0,0,.09-.74.41.41,0,0,1,.42-.44.39.39,0,0,1,.41.44A3.85,3.85,0,0,1,8.18,6.7l-.32,0Z"/></g></svg>