<svg xmlns="http://www.w3.org/2000/svg" viewBox="0 0 13.78 16.08"><defs><style>.b5d7b2cb-5d3a-4b42-975c-7537c0f27631{fill:#262626;}</style></defs><g id="f5bc476a-a8a2-4895-a317-da85fc730613" data-name="Product page"><path class="b5d7b2cb-5d3a-4b42-975c-7537c0f27631" d="M4.51,8.79a14.05,14.05,0,0,1-.85-1.27A6.69,6.69,0,0,1,2.69,4,4.2,4.2,0,0,1,11,3.52,5.28,5.28,0,0,1,10.79,6,7.42,7.42,0,0,1,9.33,8.68a.52.52,0,0,0-.08.11L10.87,10l1.09.78a4.23,4.23,0,0,1,1.82,3.48c0,.46,0,.93,0,1.4s-.14.47-.48.47H.49c-.35,0-.5-.13-.49-.49a19.58,19.58,0,0,1,.06-2A3.84,3.84,0,0,1,1.61,10.9c.89-.68,1.81-1.32,2.73-2Zm.62.51L5,9.42l-2.72,2A3.39,3.39,0,0,0,.76,14.12c0,.4,0,.79,0,1.18H13v-1a3.51,3.51,0,0,0-1.51-3L9,9.57,8.66,9.3A2.75,2.75,0,0,1,5.13,9.3ZM3.45,4.48a6.27,6.27,0,0,0,1.86,4,2,2,0,0,0,3.08.08A5.72,5.72,0,0,0,10,6.07,4.8,4.8,0,0,0,10.3,3.7,3.46,3.46,0,0,0,6.64.76,3.53,3.53,0,0,0,3.45,4.48Z"/></g></svg>